<svg xmlns="http://www.w3.org/2000/svg" viewBox="0 0 32 32" shape-rendering="crispEdges">
  <rect x="2" y="22" width="8" height="5" fill="#E8D8A8"/>
  <rect x="3" y="23" width="5" height="1" fill="#B89A5A"/>
  <rect x="4" y="25" width="4" height="1" fill="#7A1020"/>
  <rect x="20" y="6" width="8" height="5" fill="#E8D8A8"/>
  <rect x="21" y="7" width="5" height="1" fill="#B89A5A"/>
  <rect x="22" y="9" width="4" height="1" fill="#7A1020"/>
  <rect x="9" y="12" width="10" height="6" fill="#0F0F0F"/>
  <rect x="7" y="14" width="4" height="3" fill="#0F0F0F"/>
  <rect x="18" y="13" width="4" height="4" fill="#0F0F0F"/>
  <rect x="10" y="11" width="3" height="2" fill="#0F0F0F"/>
  <rect x="15" y="11" width="3" height="2" fill="#0F0F0F"/>
  <rect x="9" y="13" width="9" height="4" fill="#707070"/>
  <rect x="7" y="15" width="4" height="2" fill="#707070"/>
  <rect x="18" y="14" width="3" height="3" fill="#707070"/>
  <rect x="11" y="12" width="2" height="1" fill="#304860"/>
  <rect x="15" y="12" width="2" height="1" fill="#304860"/>
  <rect x="8" y="17" width="3" height="1" fill="#0F0F0F"/>
  <rect x="16" y="17" width="4" height="1" fill="#0F0F0F"/>
  <rect x="21" y="17" width="5" height="1" fill="#B89A5A"/>
  <rect x="26" y="16" width="3" height="1" fill="#B89A5A"/>
  <rect x="5" y="6" width="8" height="5" fill="#0F0F0F"/>
  <rect x="3" y="7" width="4" height="3" fill="#0F0F0F"/>
  <rect x="12" y="7" width="3" height="3" fill="#0F0F0F"/>
  <rect x="5" y="7" width="8" height="3" fill="#707070"/>
  <rect x="3" y="8" width="4" height="2" fill="#707070"/>
  <rect x="13" y="8" width="2" height="2" fill="#707070"/>
  <rect x="6" y="6" width="2" height="1" fill="#304860"/>
  <rect x="10" y="6" width="2" height="1" fill="#304860"/>
  <rect x="14" y="10" width="5" height="1" fill="#B89A5A"/>
  <rect x="19" y="9" width="2" height="1" fill="#B89A5A"/>
  <rect x="17" y="23" width="7" height="4" fill="#0F0F0F"/>
  <rect x="15" y="24" width="3" height="2" fill="#0F0F0F"/>
  <rect x="23" y="24" width="3" height="2" fill="#0F0F0F"/>
  <rect x="17" y="24" width="7" height="2" fill="#707070"/>
  <rect x="15" y="24" width="3" height="1" fill="#707070"/>
  <rect x="24" y="24" width="2" height="1" fill="#707070"/>
  <rect x="18" y="23" width="2" height="1" fill="#304860"/>
  <rect x="21" y="23" width="2" height="1" fill="#304860"/>
  <rect x="25" y="26" width="4" height="1" fill="#B89A5A"/>
</svg>
