<svg xmlns="http://www.w3.org/2000/svg" width="80" height="56" viewBox="0 0 80 56" shape-rendering="crispEdges">
  <rect x="0" y="0" width="80" height="56" fill="#0F0F0F"/>
  <rect x="3" y="3" width="74" height="50" fill="#3A0710"/>
  <rect x="7" y="7" width="66" height="42" fill="#7A1020"/>
  <rect x="11" y="11" width="58" height="34" fill="#0F0F0F"/>
  <rect x="15" y="15" width="50" height="26" fill="#3A0710"/>
  <rect x="24" y="8" width="32" height="5" fill="#D6A23A"/>
  <rect x="18" y="35" width="44" height="4" fill="#D6A23A"/>
  <rect x="30" y="18" width="20" height="15" fill="#0F0F0F"/>
  <rect x="32" y="20" width="16" height="11" fill="#7A1020"/>
  <rect x="34" y="22" width="12" height="2" fill="#D6A23A"/>
  <rect x="35" y="27" width="10" height="2" fill="#D6A23A"/>
  <rect x="39" y="31" width="2" height="5" fill="#F8F0D8"/>
  <rect x="12" y="20" width="6" height="6" fill="#D6A23A"/>
  <rect x="62" y="20" width="6" height="6" fill="#D6A23A"/>
  <rect x="13" y="21" width="4" height="4" fill="#7A1020"/>
  <rect x="63" y="21" width="4" height="4" fill="#7A1020"/>
</svg>
