<svg xmlns="http://www.w3.org/2000/svg" width="36" height="32" shape-rendering="crispEdges">
  <rect width="36" height="32" fill="none"/>
  <rect x="5" y="8" width="29" height="21" fill="#0F0F0F"/>
  <rect x="3" y="6" width="30" height="22" fill="#707070"/>
  <rect x="6" y="4" width="25" height="21" fill="#707070"/>
  <rect x="7" y="5" width="8" height="6" fill="#707070"/>
  <rect x="17" y="5" width="13" height="5" fill="#707070"/>
  <rect x="6" y="13" width="10" height="8" fill="#707070"/>
  <rect x="20" y="14" width="9" height="8" fill="#707070"/>
  <rect x="5" y="3" width="5" height="3" fill="#707070"/>
  <rect x="14" y="2" width="7" height="3" fill="#707070"/>
  <rect x="27" y="3" width="4" height="3" fill="#707070"/>
  <rect x="3" y="12" width="30" height="4" fill="#7A1020"/>
  <rect x="5" y="13" width="26" height="1" fill="#7A1020"/>
  <rect x="11" y="10" width="3" height="3" fill="#0F0F0F"/>
  <rect x="22" y="10" width="3" height="3" fill="#0F0F0F"/>
  <rect x="10" y="9" width="5" height="1" fill="#0F0F0F"/>
  <rect x="21" y="9" width="5" height="1" fill="#0F0F0F"/>
  <rect x="14" y="22" width="8" height="2" fill="#0F0F0F"/>
  <rect x="12" y="23" width="3" height="1" fill="#0F0F0F"/>
  <rect x="21" y="23" width="3" height="1" fill="#0F0F0F"/>
  <rect x="17" y="6" width="1" height="7" fill="#0F0F0F"/>
  <rect x="18" y="13" width="1" height="4" fill="#0F0F0F"/>
  <rect x="19" y="17" width="1" height="7" fill="#0F0F0F"/>
  <rect x="27" y="11" width="1" height="8" fill="#707070"/>
  <rect x="8" y="24" width="20" height="3" fill="#707070"/>
  <rect x="9" y="25" width="18" height="1" fill="#707070"/>
</svg>
